<svg width="50" height="50" viewBox="0 0 50 50" fill="none" xmlns="http://www.w3.org/2000/svg">
<path d="M49.0196 4.39453H0.980377C0.439072 4.39453 0 4.8336 0 5.37491V44.6171C0 45.1584 0.439072 45.5975 0.980377 45.5975H37.7663C38.3076 45.5975 38.7466 45.1584 38.7466 44.6171C38.7466 44.0758 38.3076 43.6367 37.7663 43.6367H1.96075V15.3606H48.0392V43.6367H45.6142C45.0729 43.6367 44.6339 44.0758 44.6339 44.6171C44.6339 45.1584 45.0729 45.5975 45.6142 45.5975H49.0196C49.5609 45.5975 50 45.1584 50 44.6171V5.37491C50 4.8336 49.5609 4.39453 49.0196 4.39453V4.39453ZM1.96075 13.3999V6.35529H48.0392V13.3999H1.96075Z" fill="#FAFAFA"/>
<path d="M9.12434 9.50271C8.96298 9.1117 8.55328 8.8626 8.13176 8.90113C7.7335 8.93737 7.39094 9.22004 7.27841 9.60342C7.16359 9.9971 7.31503 10.4358 7.64882 10.6742C7.97536 10.9077 8.42168 10.9161 8.75737 10.6963C9.14609 10.4423 9.30173 9.93186 9.12434 9.50271Z" fill="#FAFAFA"/>
<path d="M5.19293 9.50272C5.03385 9.11743 4.63407 8.86948 4.21865 8.89999C3.81277 8.92937 3.46143 9.21356 3.34738 9.60342C3.23522 9.98604 3.37484 10.4125 3.69146 10.6551C4.02105 10.9073 4.48683 10.9229 4.83244 10.6925C5.2162 10.4369 5.36917 9.92882 5.19293 9.50272Z" fill="#FAFAFA"/>
<path d="M13.1126 9.68589C13.031 9.28267 12.6988 8.9672 12.2913 8.90769C11.882 8.8478 11.4677 9.0618 11.2801 9.42954C11.0931 9.79499 11.1557 10.2466 11.4357 10.5472C11.7115 10.8429 12.1536 10.9367 12.5267 10.783C12.9513 10.6079 13.2042 10.1368 13.1126 9.68589Z" fill="#FAFAFA"/>
<path d="M29.5322 36.0604C29.7199 36.2313 29.956 36.3156 30.1914 36.3156C30.4581 36.3156 30.7236 36.2076 30.917 35.9951L36.2263 30.1583C36.5612 29.7901 36.5669 29.229 36.2392 28.854L31.1424 23.0171C30.7861 22.6094 30.167 22.5674 29.7592 22.9237C29.3514 23.2796 29.3094 23.8991 29.6657 24.3069L34.1877 29.4853L29.4666 34.6756C29.1023 35.0762 29.1313 35.6961 29.5322 36.0604Z" fill="#FAFAFA"/>
<path d="M20.4678 22.9366C20.0676 22.5723 19.4473 22.6017 19.083 23.0022L13.7737 28.8391C13.4388 29.2072 13.4331 29.7684 13.7608 30.1437L18.8576 35.9802C19.0514 36.2022 19.323 36.3155 19.5961 36.3155C19.825 36.3155 20.055 36.2362 20.2408 36.0737C20.6486 35.7174 20.6905 35.0983 20.3342 34.6905L15.8123 29.512L20.5334 24.3218C20.8977 23.9212 20.8687 23.3013 20.4678 22.9366Z" fill="#FAFAFA"/>
<path d="M26.0662 23.3219L21.751 34.9953C21.5633 35.5034 21.8227 36.0672 22.3305 36.2549C22.4426 36.2965 22.5574 36.3159 22.6704 36.3159C23.069 36.3159 23.444 36.071 23.5901 35.6754L27.9056 24.0021C28.0933 23.494 27.8339 22.9302 27.3258 22.7425C26.8181 22.5548 26.2543 22.8142 26.0662 23.3219Z" fill="#FAFAFA"/>
<path d="M42.588 44.2348C42.429 43.8496 42.0296 43.602 41.613 43.6321C41.2003 43.6623 40.8443 43.9579 40.7364 44.3565C40.6307 44.7452 40.7841 45.1736 41.1125 45.4071C41.4448 45.6432 41.896 45.6493 42.234 45.4212C42.6151 45.1633 42.7631 44.6587 42.588 44.2348Z" fill="#FAFAFA"/>
</svg>
