<svg width="50" height="50" viewBox="0 0 50 50" fill="none" xmlns="http://www.w3.org/2000/svg">
<g clip-path="url(#clip0)">
<path d="M45.3125 6.25H4.68754C2.10268 6.25 7.62939e-06 8.35267 7.62939e-06 10.9375V39.0625C7.62939e-06 41.6474 2.10268 43.75 4.68754 43.75H45.3125C47.8973 43.75 50 41.6474 50 39.0625V10.9375C50 8.35267 47.8973 6.25 45.3125 6.25ZM45.3125 9.37499C45.5248 9.37499 45.7267 9.41903 45.9114 9.49595L25 27.62L4.08855 9.49595C4.27319 9.41914 4.47514 9.37499 4.68744 9.37499H45.3125ZM45.3125 40.625H4.68754C3.82543 40.625 3.12499 39.9246 3.12499 39.0624V12.7975L23.9761 30.8685C24.2707 31.1233 24.6353 31.25 25 31.25C25.3647 31.25 25.7294 31.1234 26.0239 30.8685L46.875 12.7975V39.0625C46.8749 39.9246 46.1746 40.625 45.3125 40.625Z" fill="#1B1B1B"/>
</g>
<defs>
<clipPath id="clip0">
<rect width="50" height="50" fill="white"/>
</clipPath>
</defs>
</svg>
