<svg width="50" height="50" viewBox="0 0 50 50" fill="none" xmlns="http://www.w3.org/2000/svg">
<path d="M24.0234 44.1406C23.4844 44.1406 23.0469 44.5782 23.0469 45.1172C23.0469 45.6562 23.4844 46.0938 24.0234 46.0938C24.5625 46.0938 25 45.6562 25 45.1172C25 44.5782 24.5625 44.1406 24.0234 44.1406Z" fill="#1B1B1B"/>
<path d="M8.39844 50H29.8828C32.5752 50 34.7656 47.8096 34.7656 45.1172V4.88281C34.7656 2.1904 32.5752 0 29.8828 0H8.39844C5.70602 0 3.51562 2.1904 3.51562 4.88281V45.1172C3.51562 47.8096 5.70602 50 8.39844 50ZM32.8125 5.85938V40.2344H5.46875V5.85938H32.8125ZM29.8828 48.0469H8.39844C6.78291 48.0469 5.46875 46.7327 5.46875 45.1172V42.1875H32.8125V45.1172C32.8125 46.7327 31.4983 48.0469 29.8828 48.0469ZM8.39844 1.95312H29.8828C31.1558 1.95312 32.2414 2.76947 32.6447 3.90625H5.6366C6.03981 2.76947 7.12547 1.95312 8.39844 1.95312Z" fill="#1B1B1B"/>
<path d="M20.1172 44.1406H14.2578C13.7184 44.1406 13.2812 44.5778 13.2812 45.1172C13.2812 45.6566 13.7184 46.0938 14.2578 46.0938H20.1172C20.6566 46.0938 21.0938 45.6566 21.0938 45.1172C21.0938 44.5778 20.6566 44.1406 20.1172 44.1406Z" fill="#1B1B1B"/>
<path d="M41.7046 49.4602C41.8701 49.791 42.2081 50 42.5781 50C42.9482 50 43.2861 49.791 43.4517 49.4602L46.3814 43.6008C46.4489 43.465 46.4844 43.3155 46.4844 43.1641V4.88281C46.4844 3.26729 45.1702 1.95312 43.5547 1.95312V0.976562C43.5547 0.437164 43.1175 0 42.5781 0C42.0387 0 41.6016 0.437164 41.6016 0.976562V1.95312C39.986 1.95312 38.6719 3.26729 38.6719 4.88281V43.1641C38.6719 43.3155 38.707 43.465 38.7749 43.6008L41.7046 49.4602ZM44.5312 40.2344H40.625V9.76562H44.5312V40.2344ZM42.5781 46.8399L40.625 42.9337V42.1875H44.5312V42.9337L42.5781 46.8399ZM41.6016 3.90625H43.5547C44.0933 3.90625 44.5312 4.34418 44.5312 4.88281V7.8125H40.625V4.88281C40.625 4.34418 41.0629 3.90625 41.6016 3.90625Z" fill="#1B1B1B"/>
<path d="M8.39844 33.7891H22.0703C22.6097 33.7891 23.0469 33.3519 23.0469 32.8125V27.8751C27.4353 27.3876 30.8594 23.6568 30.8594 19.1406C30.8594 14.2944 26.9165 10.3516 22.0703 10.3516C17.5541 10.3516 13.8233 13.7756 13.3358 18.1641H8.39844C7.85904 18.1641 7.42188 18.6012 7.42188 19.1406V32.8125C7.42188 33.3519 7.85904 33.7891 8.39844 33.7891ZM21.0938 25.9056C18.1046 25.4761 15.7349 23.1064 15.3053 20.1172H21.0938V25.9056ZM22.0703 12.3047C25.8396 12.3047 28.9062 15.3713 28.9062 19.1406C28.9062 22.5784 26.3554 25.4303 23.0469 25.9056V19.1406C23.0469 18.6012 22.6097 18.1641 22.0703 18.1641H15.3053C15.7806 14.856 18.6325 12.3047 22.0703 12.3047ZM9.375 20.1172H13.3358C13.7875 24.1848 17.0261 27.4235 21.0938 27.8751V31.8359H9.375V20.1172Z" fill="#1B1B1B"/>
</svg>
