<svg width="95" height="53" viewBox="0 0 95 53" fill="none" xmlns="http://www.w3.org/2000/svg">
<path d="M33.384 26.948C33.384 25.916 32.88 25.4 31.872 25.4C30.888 25.4 30.072 25.772 29.424 26.516L27.408 38H21.288L24.348 20.684H30.036L29.64 22.808C31.056 21.056 32.844 20.18 35.004 20.18C37.164 20.18 38.568 20.708 39.216 21.764C39.624 22.436 39.828 23.204 39.828 24.068C39.828 24.932 39.768 25.736 39.648 26.48L38.676 32.024C38.652 32.168 38.64 32.3 38.64 32.42C38.64 33.068 39 33.392 39.72 33.392C40.272 33.392 40.764 33.272 41.196 33.032L41.016 37.1C39.888 38.036 38.604 38.504 37.164 38.504C33.9 38.504 32.268 37.136 32.268 34.4C32.268 33.92 32.316 33.404 32.412 32.852L33.276 28.064C33.348 27.632 33.384 27.26 33.384 26.948ZM73.1156 33.392C73.6676 33.392 74.1596 33.272 74.5916 33.032L74.4116 37.1C73.2836 38.036 71.9996 38.504 70.5596 38.504C67.2956 38.504 65.6636 37.136 65.6636 34.4C65.6636 33.92 65.7116 33.404 65.8076 32.852L66.5636 28.424C66.6356 27.992 66.6716 27.56 66.6716 27.128C66.6716 25.976 66.0356 25.4 64.7636 25.4C63.5156 25.4 62.5316 25.892 61.8116 26.876L59.8676 38H53.7476L55.4396 28.424C55.5116 27.992 55.5476 27.56 55.5476 27.128C55.5476 25.976 54.8996 25.4 53.6036 25.4C52.5716 25.4 51.6836 25.796 50.9396 26.588L48.9236 38H42.8036L45.8636 20.684H51.5516L51.1556 22.844C52.5956 21.068 54.4196 20.18 56.6276 20.18C59.7476 20.18 61.5236 21.212 61.9556 23.276C63.3956 21.212 65.3156 20.18 67.7156 20.18C70.1396 20.18 71.7116 20.72 72.4316 21.8C72.9116 22.544 73.1516 23.36 73.1516 24.248C73.1516 25.136 73.0916 25.94 72.9716 26.66L72.0716 32.024C72.0476 32.168 72.0356 32.3 72.0356 32.42C72.0356 33.068 72.3956 33.392 73.1156 33.392ZM92.3661 38.648C92.3661 42.152 91.4661 45.02 89.6661 47.252C87.8901 49.508 85.4661 50.636 82.3941 50.636C79.3461 50.636 77.3181 49.88 76.3101 48.368C75.6861 47.408 75.3741 46.232 75.3741 44.84C75.3741 43.472 75.4941 42.104 75.7341 40.736L80.3421 14.672H86.4621L85.3821 20.684H94.3461L93.4461 25.76H86.3901C88.0941 27.128 89.5101 28.904 90.6381 31.088C91.7901 33.272 92.3661 35.792 92.3661 38.648ZM83.3301 45.488C84.0741 45.488 84.7101 44.888 85.2381 43.688C85.7661 42.488 86.0301 40.904 86.0301 38.936C86.0301 36.992 85.8261 35.024 85.4181 33.032C85.0341 31.04 84.5661 29.48 84.0141 28.352L81.8541 40.7C81.7101 41.54 81.6381 42.272 81.6381 42.896C81.6381 44.624 82.2021 45.488 83.3301 45.488Z" fill="white"/>
<path d="M19.4614 44.687L18.1654 41.4695C18.1204 41.3645 18.0769 41.2385 18.0349 41.0915C18.0169 41.1635 17.9974 41.2325 17.9764 41.2985C17.9554 41.3615 17.9329 41.42 17.9089 41.474L16.6129 44.687H19.4614ZM20.8699 47H20.5144C20.4724 47 20.4379 46.9895 20.4109 46.9685C20.3839 46.9445 20.3629 46.9145 20.3479 46.8785L19.6009 45.029H16.4734L15.7264 46.8785C15.7144 46.9115 15.6934 46.94 15.6634 46.964C15.6334 46.988 15.5974 47 15.5554 47H15.2044L17.8099 40.6325H18.2644L20.8699 47ZM27.3855 42.5225L25.8915 47H25.572C25.521 47 25.4865 46.9685 25.4685 46.9055L24.2445 43.2695C24.2295 43.2245 24.216 43.1795 24.204 43.1345C24.192 43.0895 24.1815 43.0445 24.1725 42.9995C24.1575 43.0895 24.135 43.1795 24.105 43.2695L22.863 46.9055C22.845 46.9685 22.809 47 22.755 47H22.449L20.955 42.5225H21.279C21.321 42.5225 21.3555 42.5345 21.3825 42.5585C21.4095 42.5795 21.4275 42.6035 21.4365 42.6305L22.566 46.163C22.584 46.232 22.6005 46.2995 22.6155 46.3655C22.6305 46.4285 22.6425 46.4915 22.6515 46.5545C22.6695 46.4915 22.6875 46.4285 22.7055 46.3655C22.7235 46.2995 22.7445 46.232 22.7685 46.163L23.9655 42.599C23.9865 42.533 24.0285 42.5 24.0915 42.5H24.267C24.333 42.5 24.3765 42.533 24.3975 42.599L25.5855 46.163C25.6065 46.232 25.626 46.298 25.644 46.361C25.662 46.424 25.6785 46.487 25.6935 46.55C25.7055 46.487 25.7175 46.424 25.7295 46.361C25.7445 46.298 25.7625 46.232 25.7835 46.163L26.922 42.6305C26.934 42.5975 26.9535 42.572 26.9805 42.554C27.0075 42.533 27.039 42.5225 27.075 42.5225H27.3855ZM31.4381 44.309C31.4381 44.069 31.4036 43.8545 31.3346 43.6655C31.2686 43.4735 31.1741 43.3115 31.0511 43.1795C30.9281 43.0475 30.7811 42.947 30.6101 42.878C30.4421 42.806 30.2561 42.77 30.0521 42.77C29.8211 42.77 29.6141 42.806 29.4311 42.878C29.2481 42.95 29.0891 43.0535 28.9541 43.1885C28.8221 43.3235 28.7156 43.4855 28.6346 43.6745C28.5536 43.8635 28.4996 44.075 28.4726 44.309H31.4381ZM28.4501 44.5835V44.669C28.4501 45.005 28.4891 45.3005 28.5671 45.5555C28.6451 45.8105 28.7561 46.025 28.9001 46.199C29.0441 46.37 29.2181 46.499 29.4221 46.586C29.6261 46.673 29.8541 46.7165 30.1061 46.7165C30.3311 46.7165 30.5261 46.6925 30.6911 46.6445C30.8561 46.5935 30.9941 46.538 31.1051 46.478C31.2191 46.415 31.3091 46.3595 31.3751 46.3115C31.4411 46.2605 31.4891 46.235 31.5191 46.235C31.5581 46.235 31.5881 46.25 31.6091 46.28L31.7261 46.424C31.6541 46.514 31.5581 46.598 31.4381 46.676C31.3211 46.754 31.1891 46.8215 31.0421 46.8785C30.8981 46.9325 30.7421 46.976 30.5741 47.009C30.4091 47.042 30.2426 47.0585 30.0746 47.0585C29.7686 47.0585 29.4896 47.006 29.2376 46.901C28.9856 46.793 28.7696 46.637 28.5896 46.433C28.4096 46.229 28.2701 45.98 28.1711 45.686C28.0751 45.389 28.0271 45.05 28.0271 44.669C28.0271 44.348 28.0721 44.0525 28.1621 43.7825C28.2551 43.5095 28.3871 43.2755 28.5581 43.0805C28.7321 42.8825 28.9436 42.728 29.1926 42.617C29.4446 42.506 29.7296 42.4505 30.0476 42.4505C30.2996 42.4505 30.5336 42.494 30.7496 42.581C30.9656 42.668 31.1531 42.7955 31.3121 42.9635C31.4711 43.1285 31.5956 43.3325 31.6856 43.5755C31.7786 43.8185 31.8251 44.0975 31.8251 44.4125C31.8251 44.4785 31.8161 44.5235 31.7981 44.5475C31.7801 44.5715 31.7501 44.5835 31.7081 44.5835H28.4501ZM35.4519 43.076C35.4279 43.118 35.3934 43.139 35.3484 43.139C35.3154 43.139 35.2734 43.121 35.2224 43.085C35.1714 43.046 35.1024 43.004 35.0154 42.959C34.9314 42.911 34.8264 42.869 34.7004 42.833C34.5744 42.794 34.4214 42.7745 34.2414 42.7745C34.0794 42.7745 33.9309 42.7985 33.7959 42.8465C33.6639 42.8915 33.5499 42.953 33.4539 43.031C33.3609 43.109 33.2889 43.2005 33.2379 43.3055C33.1869 43.4075 33.1614 43.5155 33.1614 43.6295C33.1614 43.7705 33.1974 43.8875 33.2694 43.9805C33.3414 44.0735 33.4344 44.153 33.5484 44.219C33.6654 44.285 33.7989 44.342 33.9489 44.39C34.0989 44.438 34.2504 44.486 34.4034 44.534C34.5594 44.582 34.7124 44.636 34.8624 44.696C35.0124 44.753 35.1444 44.825 35.2584 44.912C35.3754 44.999 35.4699 45.1055 35.5419 45.2315C35.6139 45.3575 35.6499 45.5105 35.6499 45.6905C35.6499 45.8855 35.6154 46.067 35.5464 46.235C35.4774 46.403 35.3754 46.5485 35.2404 46.6715C35.1084 46.7945 34.9449 46.892 34.7499 46.964C34.5549 47.036 34.3314 47.072 34.0794 47.072C33.7644 47.072 33.4929 47.0225 33.2649 46.9235C33.0369 46.8215 32.8329 46.6895 32.6529 46.5275L32.7519 46.3745C32.7669 46.3505 32.7834 46.3325 32.8014 46.3205C32.8224 46.3085 32.8494 46.3025 32.8824 46.3025C32.9214 46.3025 32.9679 46.3265 33.0219 46.3745C33.0789 46.4225 33.1539 46.475 33.2469 46.532C33.3399 46.586 33.4539 46.637 33.5889 46.685C33.7269 46.733 33.8964 46.757 34.0974 46.757C34.2864 46.757 34.4529 46.7315 34.5969 46.6805C34.7409 46.6265 34.8609 46.5545 34.9569 46.4645C35.0529 46.3745 35.1249 46.2695 35.1729 46.1495C35.2239 46.0265 35.2494 45.8975 35.2494 45.7625C35.2494 45.6125 35.2134 45.488 35.1414 45.389C35.0694 45.29 34.9749 45.206 34.8579 45.137C34.7409 45.068 34.6074 45.0095 34.4574 44.9615C34.3104 44.9135 34.1589 44.8655 34.0029 44.8175C33.8469 44.7695 33.6939 44.717 33.5439 44.66C33.3969 44.603 33.2649 44.531 33.1479 44.444C33.0309 44.357 32.9364 44.252 32.8644 44.129C32.7924 44.003 32.7564 43.847 32.7564 43.661C32.7564 43.502 32.7909 43.349 32.8599 43.202C32.9289 43.055 33.0264 42.926 33.1524 42.815C33.2814 42.704 33.4374 42.6155 33.6204 42.5495C33.8034 42.4835 34.0089 42.4505 34.2369 42.4505C34.5099 42.4505 34.7514 42.4895 34.9614 42.5675C35.1744 42.6455 35.3679 42.7655 35.5419 42.9275L35.4519 43.076ZM38.5867 42.4505C38.9077 42.4505 39.1942 42.506 39.4462 42.617C39.7012 42.725 39.9157 42.8795 40.0897 43.0805C40.2637 43.2815 40.3957 43.5245 40.4857 43.8095C40.5787 44.0915 40.6252 44.408 40.6252 44.759C40.6252 45.11 40.5787 45.4265 40.4857 45.7085C40.3957 45.9905 40.2637 46.232 40.0897 46.433C39.9157 46.634 39.7012 46.7885 39.4462 46.8965C39.1942 47.0045 38.9077 47.0585 38.5867 47.0585C38.2657 47.0585 37.9777 47.0045 37.7227 46.8965C37.4707 46.7885 37.2562 46.634 37.0792 46.433C36.9052 46.232 36.7717 45.9905 36.6787 45.7085C36.5887 45.4265 36.5437 45.11 36.5437 44.759C36.5437 44.408 36.5887 44.0915 36.6787 43.8095C36.7717 43.5245 36.9052 43.2815 37.0792 43.0805C37.2562 42.8795 37.4707 42.725 37.7227 42.617C37.9777 42.506 38.2657 42.4505 38.5867 42.4505ZM38.5867 46.721C38.8537 46.721 39.0862 46.676 39.2842 46.586C39.4852 46.493 39.6517 46.361 39.7837 46.19C39.9187 46.019 40.0192 45.8135 40.0852 45.5735C40.1512 45.3305 40.1842 45.059 40.1842 44.759C40.1842 44.462 40.1512 44.192 40.0852 43.949C40.0192 43.706 39.9187 43.499 39.7837 43.328C39.6517 43.154 39.4852 43.0205 39.2842 42.9275C39.0862 42.8345 38.8537 42.788 38.5867 42.788C38.3197 42.788 38.0857 42.8345 37.8847 42.9275C37.6867 43.0205 37.5202 43.154 37.3852 43.328C37.2532 43.499 37.1527 43.706 37.0837 43.949C37.0177 44.192 36.9847 44.462 36.9847 44.759C36.9847 45.059 37.0177 45.3305 37.0837 45.5735C37.1527 45.8135 37.2532 46.019 37.3852 46.19C37.5202 46.361 37.6867 46.493 37.8847 46.586C38.0857 46.676 38.3197 46.721 38.5867 46.721ZM41.8322 47V42.5225H42.0707C42.1457 42.5225 42.1892 42.56 42.2012 42.635L42.2417 43.283C42.4157 43.034 42.6152 42.833 42.8402 42.68C43.0652 42.527 43.3187 42.4505 43.6007 42.4505C43.9277 42.4505 44.1887 42.545 44.3837 42.734C44.5817 42.923 44.7152 43.1855 44.7842 43.5215C44.8382 43.3385 44.9132 43.1795 45.0092 43.0445C45.1082 42.9095 45.2207 42.7985 45.3467 42.7115C45.4727 42.6215 45.6092 42.5555 45.7562 42.5135C45.9062 42.4715 46.0592 42.4505 46.2152 42.4505C46.4372 42.4505 46.6367 42.488 46.8137 42.563C46.9907 42.635 47.1407 42.743 47.2637 42.887C47.3867 43.031 47.4812 43.208 47.5472 43.418C47.6132 43.628 47.6462 43.868 47.6462 44.138V47H47.2187V44.138C47.2187 43.7 47.1242 43.367 46.9352 43.139C46.7462 42.908 46.4762 42.7925 46.1252 42.7925C45.9692 42.7925 45.8192 42.821 45.6752 42.878C45.5342 42.935 45.4082 43.0205 45.2972 43.1345C45.1892 43.2455 45.1022 43.385 45.0362 43.553C44.9732 43.721 44.9417 43.916 44.9417 44.138V47H44.5097V44.138C44.5097 43.703 44.4227 43.37 44.2487 43.139C44.0777 42.908 43.8257 42.7925 43.4927 42.7925C43.2497 42.7925 43.0247 42.8645 42.8177 43.0085C42.6107 43.1525 42.4262 43.352 42.2642 43.607V47H41.8322ZM52.2154 44.309C52.2154 44.069 52.1809 43.8545 52.1119 43.6655C52.0459 43.4735 51.9514 43.3115 51.8284 43.1795C51.7054 43.0475 51.5584 42.947 51.3874 42.878C51.2194 42.806 51.0334 42.77 50.8294 42.77C50.5984 42.77 50.3914 42.806 50.2084 42.878C50.0254 42.95 49.8664 43.0535 49.7314 43.1885C49.5994 43.3235 49.4929 43.4855 49.4119 43.6745C49.3309 43.8635 49.2769 44.075 49.2499 44.309H52.2154ZM49.2274 44.5835V44.669C49.2274 45.005 49.2664 45.3005 49.3444 45.5555C49.4224 45.8105 49.5334 46.025 49.6774 46.199C49.8214 46.37 49.9954 46.499 50.1994 46.586C50.4034 46.673 50.6314 46.7165 50.8834 46.7165C51.1084 46.7165 51.3034 46.6925 51.4684 46.6445C51.6334 46.5935 51.7714 46.538 51.8824 46.478C51.9964 46.415 52.0864 46.3595 52.1524 46.3115C52.2184 46.2605 52.2664 46.235 52.2964 46.235C52.3354 46.235 52.3654 46.25 52.3864 46.28L52.5034 46.424C52.4314 46.514 52.3354 46.598 52.2154 46.676C52.0984 46.754 51.9664 46.8215 51.8194 46.8785C51.6754 46.9325 51.5194 46.976 51.3514 47.009C51.1864 47.042 51.0199 47.0585 50.8519 47.0585C50.5459 47.0585 50.2669 47.006 50.0149 46.901C49.7629 46.793 49.5469 46.637 49.3669 46.433C49.1869 46.229 49.0474 45.98 48.9484 45.686C48.8524 45.389 48.8044 45.05 48.8044 44.669C48.8044 44.348 48.8494 44.0525 48.9394 43.7825C49.0324 43.5095 49.1644 43.2755 49.3354 43.0805C49.5094 42.8825 49.7209 42.728 49.9699 42.617C50.2219 42.506 50.5069 42.4505 50.8249 42.4505C51.0769 42.4505 51.3109 42.494 51.5269 42.581C51.7429 42.668 51.9304 42.7955 52.0894 42.9635C52.2484 43.1285 52.3729 43.3325 52.4629 43.5755C52.5559 43.8185 52.6024 44.0975 52.6024 44.4125C52.6024 44.4785 52.5934 44.5235 52.5754 44.5475C52.5574 44.5715 52.5274 44.5835 52.4854 44.5835H49.2274ZM59.5051 41.4065C59.4781 41.4575 59.4391 41.483 59.3881 41.483C59.3491 41.483 59.2981 41.456 59.2351 41.402C59.1751 41.345 59.0926 41.2835 58.9876 41.2175C58.8826 41.1485 58.7506 41.0855 58.5916 41.0285C58.4356 40.9715 58.2421 40.943 58.0111 40.943C57.7801 40.943 57.5761 40.976 57.3991 41.042C57.2251 41.108 57.0781 41.198 56.9581 41.312C56.8411 41.426 56.7511 41.558 56.6881 41.708C56.6281 41.858 56.5981 42.0155 56.5981 42.1805C56.5981 42.3965 56.6431 42.575 56.7331 42.716C56.8261 42.857 56.9476 42.977 57.0976 43.076C57.2476 43.175 57.4171 43.259 57.6061 43.328C57.7981 43.394 57.9946 43.46 58.1956 43.526C58.3966 43.592 58.5916 43.6655 58.7806 43.7465C58.9726 43.8245 59.1436 43.9235 59.2936 44.0435C59.4436 44.1635 59.5636 44.312 59.6536 44.489C59.7466 44.663 59.7931 44.8805 59.7931 45.1415C59.7931 45.4085 59.7466 45.6605 59.6536 45.8975C59.5636 46.1315 59.4316 46.3355 59.2576 46.5095C59.0836 46.6835 58.8706 46.8215 58.6186 46.9235C58.3666 47.0225 58.0786 47.072 57.7546 47.072C57.3346 47.072 56.9731 46.9985 56.6701 46.8515C56.3671 46.7015 56.1016 46.4975 55.8736 46.2395L55.9996 46.0415C56.0356 45.9965 56.0776 45.974 56.1256 45.974C56.1526 45.974 56.1871 45.992 56.2291 46.028C56.2711 46.064 56.3221 46.109 56.3821 46.163C56.4421 46.214 56.5141 46.271 56.5981 46.334C56.6821 46.394 56.7796 46.451 56.8906 46.505C57.0016 46.556 57.1291 46.5995 57.2731 46.6355C57.4171 46.6715 57.5806 46.6895 57.7636 46.6895C58.0156 46.6895 58.2406 46.652 58.4386 46.577C58.6366 46.499 58.8031 46.394 58.9381 46.262C59.0761 46.13 59.1811 45.974 59.2531 45.794C59.3251 45.611 59.3611 45.416 59.3611 45.209C59.3611 44.984 59.3146 44.7995 59.2216 44.6555C59.1316 44.5085 59.0116 44.387 58.8616 44.291C58.7116 44.192 58.5406 44.1095 58.3486 44.0435C58.1596 43.9775 57.9646 43.913 57.7636 43.85C57.5626 43.787 57.3661 43.7165 57.1741 43.6385C56.9851 43.5605 56.8156 43.4615 56.6656 43.3415C56.5156 43.2185 56.3941 43.067 56.3011 42.887C56.2111 42.704 56.1661 42.476 56.1661 42.203C56.1661 41.99 56.2066 41.7845 56.2876 41.5865C56.3686 41.3885 56.4871 41.2145 56.6431 41.0645C56.7991 40.9115 56.9911 40.79 57.2191 40.7C57.4501 40.607 57.7126 40.5605 58.0066 40.5605C58.3366 40.5605 58.6321 40.613 58.8931 40.718C59.1571 40.823 59.3971 40.9835 59.6131 41.1995L59.5051 41.4065ZM62.0406 47.072C61.7376 47.072 61.5006 46.988 61.3296 46.82C61.1616 46.652 61.0776 46.3925 61.0776 46.0415V42.9815H60.4341C60.4011 42.9815 60.3741 42.9725 60.3531 42.9545C60.3321 42.9365 60.3216 42.911 60.3216 42.878V42.7115L61.0866 42.6575L61.1946 41.0555C61.2006 41.0285 61.2126 41.0045 61.2306 40.9835C61.2486 40.9625 61.2741 40.952 61.3071 40.952H61.5096V42.662H62.9226V42.9815H61.5096V46.019C61.5096 46.142 61.5246 46.2485 61.5546 46.3385C61.5876 46.4255 61.6311 46.4975 61.6851 46.5545C61.7421 46.6115 61.8081 46.6535 61.8831 46.6805C61.9581 46.7075 62.0391 46.721 62.1261 46.721C62.2341 46.721 62.3271 46.706 62.4051 46.676C62.4831 46.643 62.5506 46.6085 62.6076 46.5725C62.6646 46.5335 62.7111 46.499 62.7471 46.469C62.7831 46.436 62.8116 46.4195 62.8326 46.4195C62.8566 46.4195 62.8806 46.4345 62.9046 46.4645L63.0216 46.6535C62.9076 46.7795 62.7621 46.8815 62.5851 46.9595C62.4111 47.0345 62.2296 47.072 62.0406 47.072ZM67.3756 42.5225V47H67.1371C67.0621 47 67.0186 46.961 67.0066 46.883L66.9661 46.217C66.7591 46.475 66.5191 46.682 66.2461 46.838C65.9761 46.994 65.6746 47.072 65.3416 47.072C65.0926 47.072 64.8751 47.033 64.6891 46.955C64.5031 46.877 64.3486 46.7645 64.2256 46.6175C64.1026 46.4705 64.0096 46.2935 63.9466 46.0865C63.8836 45.8795 63.8521 45.6455 63.8521 45.3845V42.5225H64.2841V45.3845C64.2841 45.8045 64.3801 46.1345 64.5721 46.3745C64.7641 46.6115 65.0566 46.73 65.4496 46.73C65.7406 46.73 66.0121 46.6565 66.2641 46.5095C66.5191 46.3595 66.7456 46.1525 66.9436 45.8885V42.5225H67.3756ZM69.1153 47V42.9905L68.4853 42.95C68.4013 42.941 68.3593 42.9035 68.3593 42.8375V42.662H69.1153V42.1535C69.1153 41.8985 69.1483 41.675 69.2143 41.483C69.2803 41.288 69.3733 41.126 69.4933 40.997C69.6133 40.868 69.7573 40.772 69.9253 40.709C70.0933 40.643 70.2793 40.61 70.4833 40.61C70.5763 40.61 70.6693 40.6175 70.7623 40.6325C70.8583 40.6475 70.9438 40.6715 71.0188 40.7045L71.0053 40.9115C70.9993 40.9385 70.9858 40.955 70.9648 40.961C70.9468 40.967 70.9198 40.97 70.8838 40.97C70.8478 40.967 70.8013 40.9625 70.7443 40.9565C70.6873 40.9475 70.6213 40.943 70.5463 40.943C70.3993 40.943 70.2628 40.9655 70.1368 41.0105C70.0138 41.0525 69.9073 41.1215 69.8173 41.2175C69.7273 41.3135 69.6568 41.4395 69.6058 41.5955C69.5578 41.7515 69.5338 41.942 69.5338 42.167V42.662H71.8558V42.0725C71.8558 41.8175 71.8888 41.594 71.9548 41.402C72.0208 41.207 72.1138 41.045 72.2338 40.916C72.3538 40.787 72.4978 40.691 72.6658 40.628C72.8338 40.562 73.0198 40.529 73.2238 40.529C73.3168 40.529 73.4098 40.538 73.5028 40.556C73.5988 40.571 73.6828 40.5935 73.7548 40.6235L73.7413 40.8305C73.7383 40.8575 73.7263 40.8755 73.7053 40.8845C73.6873 40.8905 73.6588 40.8935 73.6198 40.8935C73.5838 40.8905 73.5373 40.886 73.4803 40.88C73.4263 40.871 73.3603 40.8665 73.2823 40.8665C73.1353 40.8665 73.0003 40.889 72.8773 40.934C72.7543 40.976 72.6478 41.045 72.5578 41.141C72.4678 41.237 72.3973 41.363 72.3463 41.519C72.2983 41.672 72.2743 41.861 72.2743 42.086V42.662H73.7233V42.9815H72.2833V47H71.8558V42.9815H69.5473V47H69.1153Z" fill="white"/>
</svg>
