<svg width="50" height="50" viewBox="0 0 50 50" fill="none" xmlns="http://www.w3.org/2000/svg">
<g clip-path="url(#clip0)">
<path d="M48.7137 36.8783L42.4979 30.6625C40.7843 28.949 37.9958 28.949 36.2822 30.6625L33.4569 33.4878C32.1587 34.7861 30.0462 34.7857 28.7484 33.4883L16.5023 21.2318C15.201 19.9305 15.2008 17.8243 16.5023 16.5229C16.9574 16.0678 18.2641 14.7611 19.3276 13.6976C21.0337 11.9915 21.0576 9.21173 19.3259 7.48028L13.1118 1.28574C11.3982 -0.427832 8.60978 -0.427832 6.9007 1.28125C5.62179 2.54903 5.20929 2.95801 4.63585 3.52647C-1.54385 9.70607 -1.54385 19.7611 4.63556 25.9405L24.0391 45.3542C30.2333 51.5484 40.2587 51.5489 46.4533 45.3542L48.7137 43.0939C50.4274 41.3802 50.4274 38.5919 48.7137 36.8783ZM8.96809 3.35762C9.53928 2.78643 10.4686 2.78633 11.0416 3.35918L17.2557 9.55373C17.8283 10.1263 17.8283 11.0529 17.2557 11.6256L16.2197 12.6615L7.93742 4.3793L8.96809 3.35762ZM26.1114 43.2826L6.70773 23.8687C1.92666 19.0876 1.66387 11.5803 5.89952 6.48526L14.1577 14.7435C11.9878 17.2033 12.0782 20.9517 14.4299 23.3034L26.6756 35.5593C26.6757 35.5594 26.6759 35.5596 26.676 35.5597C29.0252 37.9089 32.7733 38.0052 35.2362 35.8324L43.4946 44.0908C38.4158 48.3191 30.9254 48.0965 26.1114 43.2826ZM46.6419 41.022L45.6059 42.0581L37.3182 33.7704L38.3541 32.7344C38.9254 32.1632 39.8548 32.1631 40.4261 32.7344L46.6418 38.9501C47.2131 39.5214 47.2131 40.4509 46.6419 41.022Z" fill="#1B1B1B"/>
</g>
<defs>
<clipPath id="clip0">
<rect width="50" height="50" fill="white"/>
</clipPath>
</defs>
</svg>
