<svg width="50" height="50" viewBox="0 0 50 50" fill="none" xmlns="http://www.w3.org/2000/svg">
<path d="M25 0C15.3074 0 7.42188 7.88555 7.42188 17.5781C7.42188 20.8529 8.329 24.0488 10.0458 26.8215L23.9994 49.3075C24.2667 49.7383 24.7376 50 25.244 50C25.2479 50 25.2518 50 25.2557 50C25.7665 49.996 26.2384 49.7262 26.5008 49.2879L40.0987 26.584C41.7208 23.8699 42.5781 20.7558 42.5781 17.5781C42.5781 7.88555 34.6926 0 25 0ZM37.5846 25.0799L25.2219 45.7213L12.5358 25.2779C11.1068 22.9701 10.332 20.3076 10.332 17.5781C10.332 9.50098 16.9229 2.91016 25 2.91016C33.0771 2.91016 39.6582 9.50098 39.6582 17.5781C39.6582 20.2267 38.9345 22.8211 37.5846 25.0799Z" fill="#1B1B1B"/>
<path d="M25 8.78906C20.1537 8.78906 16.2109 12.7318 16.2109 17.5781C16.2109 22.3935 20.0896 26.3672 25 26.3672C29.971 26.3672 33.7891 22.3405 33.7891 17.5781C33.7891 12.7318 29.8463 8.78906 25 8.78906ZM25 23.457C21.7522 23.457 19.1211 20.8171 19.1211 17.5781C19.1211 14.3473 21.7691 11.6992 25 11.6992C28.2309 11.6992 30.8691 14.3473 30.8691 17.5781C30.8691 20.7698 28.2992 23.457 25 23.457Z" fill="#1B1B1B"/>
</svg>
